<?xml version="1.0" encoding="UTF-8" standalone="no"?>
<svg width="1025px" height="769px" viewBox="0 0 1025 769" version="1.1" xmlns="http://www.w3.org/2000/svg" xmlns:xlink="http://www.w3.org/1999/xlink">
    <!-- Generator: Sketch 3.6.1 (26313) - http://www.bohemiancoding.com/sketch -->
    <title>Uhr</title>
    <desc>Created with Sketch.</desc>
    <defs>
        <rect id="path-1" x="0.429" y="0.362" width="1023.7143" height="768"></rect>
        <filter x="-50%" y="-50%" width="200%" height="200%" filterUnits="objectBoundingBox" id="filter-2">
            <feMorphology radius="1" in="SourceAlpha" operator="dilate" result="shadowSpreadOuter1"></feMorphology>
            <feOffset dx="0" dy="0" in="shadowSpreadOuter1" result="shadowOffsetOuter1"></feOffset>
            <feGaussianBlur stdDeviation="6" in="shadowOffsetOuter1" result="shadowBlurOuter1"></feGaussianBlur>
            <feColorMatrix values="0 0 0 0 0   0 0 0 0 0   0 0 0 0 0  0 0 0 0.135232677 0" in="shadowBlurOuter1" type="matrix" result="shadowMatrixOuter1"></feColorMatrix>
            <feMerge>
                <feMergeNode in="shadowMatrixOuter1"></feMergeNode>
                <feMergeNode in="SourceGraphic"></feMergeNode>
            </feMerge>
        </filter>
    </defs>
    <g id="Page-1" stroke="none" stroke-width="1" fill="none" fill-rule="evenodd">
        <g id="Background">
            <use fill="none" xlink:href="#path-1"></use>
            <use fill="#DCDAFF" fill-rule="evenodd" xlink:href="#path-1"></use>
        </g>
        <path d="M636.5,633 C773.190476,633 884,522.190476 884,385.5 C884,248.809524 773.190476,138 636.5,138 C499.809524,138 389,248.809524 389,385.5 C389,522.190476 499.809524,633 636.5,633 Z" id="ClockFace" fill="#FFFFFF" filter="url(#filter-2)"></path>
        <circle id="Dot" stroke="#417505" fill="#417505" cx="144.5" cy="85.5" r="20.5"></circle>
        <path d="M644.154639,213.718848 L644.154639,378.98671 C644.154639,383.453607 640.528066,387.074742 636.074742,387.074742 C631.612338,387.074742 627.994845,383.456914 627.994845,378.98671 L627.994845,213.718848 C615.718422,210.209994 606.731959,198.905736 606.731959,185.502577 C606.731959,169.297005 619.86917,156.159794 636.074742,156.159794 C652.280314,156.159794 665.417526,169.297005 665.417526,185.502577 C665.417526,198.905736 656.431063,210.209994 644.154639,213.718848 Z" id="KleinerZeiger" stroke="#F6A623" stroke-width="6" fill="#FFFFFF"></path>
        <path d="M644.42268,276.559054 L644.42268,378.913816 C644.42268,383.379692 640.796107,387 636.342784,387 C631.88038,387 628.262887,383.384665 628.262887,378.913816 L628.262887,276.559054 C615.986463,273.0502 607,261.745942 607,248.342784 C607,232.137212 620.137212,219 636.342784,219 C652.548355,219 665.685567,232.137212 665.685567,248.342784 C665.685567,261.745942 656.699104,273.0502 644.42268,276.559054 Z" id="GrosserZeiger" stroke="#4A4A4A" stroke-width="6" fill="#F3F3F3"></path>
    </g>
</svg>